<?xml version="1.0" encoding="UTF-8" standalone="no"?>
<!-- Created with Inkscape (http://www.inkscape.org/) -->

<svg
   xmlns:dc="http://purl.org/dc/elements/1.1/"
   xmlns:cc="http://creativecommons.org/ns#"
   xmlns:rdf="http://www.w3.org/1999/02/22-rdf-syntax-ns#"
   xmlns:svg="http://www.w3.org/2000/svg"
   xmlns="http://www.w3.org/2000/svg"
   xmlns:sodipodi="http://sodipodi.sourceforge.net/DTD/sodipodi-0.dtd"
   xmlns:inkscape="http://www.inkscape.org/namespaces/inkscape"
   width="573.91895mm"
   height="52.916691mm"
   viewBox="0 0 573.91895 52.916691"
   version="1.1"
   id="svg8883"
   inkscape:version="0.92.1 r15371"
   sodipodi:docname="Austin_American-Statesman_(2019-10-31).svg">
  <defs
     id="defs8877" />
  <sodipodi:namedview
     id="base"
     pagecolor="#ffffff"
     bordercolor="#666666"
     borderopacity="1.0"
     inkscape:pageopacity="0.0"
     inkscape:pageshadow="2"
     inkscape:zoom="0.55505808"
     inkscape:cx="1084.5712"
     inkscape:cy="100.00005"
     inkscape:document-units="mm"
     inkscape:current-layer="svg8883"
     showgrid="false"
     fit-margin-top="0"
     fit-margin-left="0"
     fit-margin-right="0"
     fit-margin-bottom="0"
     inkscape:window-width="1920"
     inkscape:window-height="1001"
     inkscape:window-x="-9"
     inkscape:window-y="-9"
     inkscape:window-maximized="1" />
  <metadata
     id="metadata8880">
    <rdf:RDF>
      <cc:Work
         rdf:about="">
        <dc:format>image/svg+xml</dc:format>
        <dc:type
           rdf:resource="http://purl.org/dc/dcmitype/StillImage" />
        <dc:title></dc:title>
      </cc:Work>
    </rdf:RDF>
  </metadata>
  <path
     inkscape:connector-curvature="0"
     id="path4719"
     d="m 110.73336,5.94229 -4.83445,5.18514 -3.03176,-2.21565 c -0.31138,-0.22615 -0.55064,-0.29826 -0.75713,-0.29171 -0.22616,0.01 -0.40642,0.118 -0.58013,0.29171 l -0.64241,0.6424 -0.46542,-0.40969 4.71973,-5.24087 2.9695,2.21238 c 0.30481,0.22615 0.57029,0.3507 0.81284,0.3507 0.25893,0 0.48508,-0.0786 0.7014,-0.29171 l 0.63913,-0.6424 z m 0,0"
     style="fill:#211e1e;fill-opacity:1;fill-rule:nonzero;stroke:none;stroke-width:0.83906275" />
  <path
     inkscape:connector-curvature="0"
     id="path4721"
     d="m 139.44831,41.24192 -4.95243,5.35886 c -1.95017,-1.5667 -4.31987,-3.26121 -5.64729,-4.07733 v -0.11799 c 0.52113,-0.46542 0.58014,-0.95378 0.58014,-2.09766 V 21.61244 l -5.06716,-3.32348 c -0.42281,0.31137 -0.96689,0.71779 -1.16355,0.87512 v 20.7963 c 0,1.4028 0.46542,2.03866 1.45525,2.38609 v 0.11798 c -1.35036,1.26188 -3.23825,3.22843 -4.01832,4.13633 -1.41591,-1.20944 -3.65451,-2.88101 -4.83444,-3.67091 v -0.11471 c 0.87184,-0.52442 1.16354,-1.29465 1.16354,-2.68107 V 20.85531 l -1.28154,-1.10782 c -0.21632,-0.18682 -0.4228,-0.28843 -0.63913,-0.2917 -0.2622,-0.004 -0.5408,0.1311 -0.87511,0.46541 l -0.87184,0.87511 -0.52442,-0.46541 5.41459,-5.82427 5.01142,3.72661 4.94916,-3.78561 c 2.10094,1.51752 6.31592,3.91999 8.50535,5.00816 v 0.11798 c -0.69813,0.46542 -0.98984,1.16355 -0.98984,2.38609 v 18.69865 l 1.22254,0.81611 c 0.2786,0.18355 0.52115,0.29171 0.75713,0.29171 0.2917,0 0.5703,-0.12455 0.87512,-0.46869 l 0.46541,-0.52442 z m 0,0"
     style="fill:#211e1e;fill-opacity:1;fill-rule:nonzero;stroke:none;stroke-width:0.83906275" />
  <path
     inkscape:connector-curvature="0"
     id="path4723"
     d="m 114.16827,40.7765 -5.18515,5.76528 c -1.68795,-1.34053 -4.03798,-3.04488 -5.88327,-4.13632 v -0.11472 c 0.64241,-0.52441 0.87512,-1.14715 0.87512,-2.03866 V 19.9212 l -1.22254,-0.81612 c -0.18354,-0.11799 -0.29171,-0.17371 -0.52442,-0.17371 -0.23926,0 -0.48508,0.16715 -0.69812,0.40642 l -0.87512,0.99311 -0.52441,-0.52442 4.95243,-5.35885 6.11598,3.84461 v 0.0557 c -0.75712,0.58342 -1.04883,1.2291 -1.04883,2.38936 v 19.92119 l 1.16355,0.6424 c 0.3212,0.17372 0.57685,0.23272 0.81612,0.23272 0.29498,0 0.56047,-0.18027 0.87512,-0.52441 l 0.63913,-0.70141 z m 0,0"
     style="fill:#211e1e;fill-opacity:1;fill-rule:nonzero;stroke:none;stroke-width:0.83906275" />
  <path
     inkscape:connector-curvature="0"
     id="path4725"
     d="m 100.82848,40.59951 -5.41785,6.00127 c -2.32053,-1.5667 -5.81444,-3.67419 -7.97765,-4.83445 v -0.118 c 0.48508,-0.39331 0.69813,-0.88494 0.69813,-1.86494 V 18.93137 H 84.6372 l 1.16354,-2.15338 h 2.38936 v -3.9036 c 0,-0.87512 -0.0197,-1.57324 -0.7014,-2.09766 v -0.11471 c 3.09077,-0.29171 4.70334,-3.90362 8.03992,-3.96261 l 0.118,0.2327 c -0.80301,0.52442 -1.34054,1.68796 -1.34054,3.90362 V 16.601 h 5.41786 l -1.34053,2.79578 c -0.37366,-0.28843 -0.80629,-0.46541 -1.57325,-0.46541 h -2.50408 v 20.61931 l 3.0285,1.57324 c 0.53096,0.27532 0.90461,0.40643 1.22254,0.40971 0.37036,0.004 0.66862,-0.17045 1.04883,-0.58342 l 0.75712,-0.81612 z m 0,0"
     style="fill:#211e1e;fill-opacity:1;fill-rule:nonzero;stroke:none;stroke-width:0.83906275" />
  <path
     inkscape:connector-curvature="0"
     id="path4727"
     d="m 64.71601,41.00921 -5.06715,5.53257 -5.30314,-3.78562 -5.12615,3.84462 c -1.97966,-1.39953 -5.59156,-3.61191 -8.21364,-5.18515 v -0.11799 c 0.78007,-0.48509 1.04883,-1.15699 1.04883,-2.32709 V 20.38662 l -1.34053,-0.81285 c -0.26221,-0.16387 -0.49164,-0.2917 -0.69813,-0.2917 -0.25237,0 -0.47197,0.10488 -0.69812,0.34743 l -0.75713,0.81611 -0.52441,-0.40642 5.24086,-5.59156 5.88655,4.19203 v 0.059 c -0.58341,0.46542 -0.93411,1.05212 -0.93411,2.27137 v 18.52494 l 5.06715,3.2022 1.39953,-1.04883 V 20.79633 c 0,-1.22254 -0.30481,-1.84529 -1.34053,-2.27137 v -0.059 l 3.90361,-4.01833 4.89344,3.6119 v 0.0557 c -0.87512,0.58341 -1.22254,1.43886 -1.22254,2.44836 v 19.9769 l 0.87184,0.64241 c 0.47197,0.34414 0.79317,0.41297 1.04882,0.40642 0.23927,-0.004 0.44903,-0.13438 0.69813,-0.40642 l 0.64241,-0.69812 z m 0,0"
     style="fill:#211e1e;fill-opacity:1;fill-rule:nonzero;stroke:none;stroke-width:0.83906275" />
  <path
     inkscape:connector-curvature="0"
     id="path4729"
     d="M 77.47239,42.46445 V 34.0181 l -3.84789,-1.92393 -6.34542,9.61317 c 1.16355,-0.63913 2.6778,-1.22254 5.35886,-1.22254 1.29793,0 2.90395,0.57357 4.71646,1.97965 z m 3.2022,-22.25154 c -0.51131,0.23926 -2.36641,0.75712 -3.72989,0.75712 -1.74697,0 -3.78234,-0.69813 -5.76528,-2.73679 l -0.0557,0.059 v 7.39751 l 4.48374,2.27137 z m 4.13632,-5.82428 c 0,0.46542 -0.48508,1.58963 -0.70141,1.92394 l -7.22052,11.12414 7.22052,3.49392 v 0.11798 c -0.63913,0.40643 -0.93083,0.93412 -0.93083,2.09439 v 8.56434 c -3.27431,0.87183 -7.49584,3.08748 -9.8426,4.89344 -1.10783,-0.98984 -2.33036,-1.80596 -4.19532,-1.80596 -2.71711,0 -4.36902,1.16354 -4.36902,2.85478 0,2.15337 2.33037,2.9695 3.90361,2.9695 l -0.69813,0.81612 c -1.91738,-0.23271 -4.13632,-1.51425 -4.13632,-4.19531 0,-2.14683 1.40282,-3.69057 2.27138,-5.00816 l 6.34869,-9.61317 -8.03666,-4.07732 v -0.11472 c 0.83907,-0.55063 0.93084,-1.28154 0.93084,-2.56307 V 19.9802 c 3.39886,-0.87185 7.44013,-3.49392 9.72789,-5.53257 1.84856,1.53063 3.5529,2.61879 5.29986,2.61879 2.28775,0 3.6119,-1.40608 3.6119,-2.50408 0,-0.98983 -0.34742,-1.39625 -0.81612,-1.74696 l 0.93083,-0.63913 c 0.3671,0.37366 0.70141,0.92756 0.70141,2.21238"
     style="fill:#211e1e;fill-opacity:1;fill-rule:nonzero;stroke:none;stroke-width:0.83906275" />
  <path
     style="clip-rule:nonzero;fill:#211e1e;fill-opacity:1;fill-rule:nonzero;stroke:none;stroke-width:0.83906275"
     d="M 25.45378,29.59009 18.99037,8.73807 h -0.11799 l -6.05699,20.85202 z m 14.44761,10.9537 -5.65057,6.1127 c -1.51424,-1.15371 -4.58534,-3.3202 -6.28969,-4.31002 v -0.11472 c 0.46542,-0.32121 0.75385,-0.67519 0.81284,-1.16683 0.0295,-0.22287 0.0295,-0.46869 -0.059,-0.75712 l -2.9105,-9.49189 h -0.11471 l -1.10783,2.50407 h -0.059 c -0.5572,-0.4097 -1.57325,-0.52441 -2.97278,-0.52441 h -9.66889 l -2.21237,7.45651 c 1.14388,0.0394 2.92361,0.50148 4.19531,1.16355 0.28187,0.14749 0.53097,0.23926 0.75712,0.2327 0.21633,-0.007 0.4097,-0.1016 0.58342,-0.2917 l 0.63913,-0.69812 0.52441,0.46541 -5.12615,5.41786 c -0.92756,-0.87512 -3.2317,-1.92395 -4.77545,-1.92395 -3.02849,0 -4.60173,1.80595 -4.60173,3.6709 0,2.33037 1.3307,3.67091 3.49391,3.67091 1.73057,0 2.9105,-0.46543 3.6709,-0.87512 l -0.3507,1.16681 C 8.18414,52.48405 7.04354,52.77575 5.06715,52.77575 2.59585,52.77575 0,51.02552 0,47.59061 0,43.10687 4.12649,40.19309 8.32835,40.13409 l 4.77873,-16.36828 c -0.52442,-0.28843 -1.60274,-0.69813 -2.38936,-0.69813 -1.56014,0 -2.85478,0.75713 -3.3202,1.97967 l -0.23271,-0.059 C 7.07961,24.64748 6.9321,24.1165 6.9321,23.64781 c 0,-2.65484 1.80595,-5.18186 4.89344,-5.18186 0.89478,0 1.98294,0.28187 2.67779,0.52441 L 18.05624,6.75839 C 17.1254,4.77873 14.91303,3.90361 12.40567,3.90361 c -2.71712,0 -4.83772,1.68796 -5.76527,2.6778 L 6.29297,6.34868 C 7.03371,3.6119 9.78688,0 15.55216,0 c 2.45164,0 5.39819,1.06849 7.33852,3.26447 h 0.059 c 0.29171,-1.22582 1.5077,-2.12387 2.38937,-2.33364 l 0.11471,0.118 c -0.3212,0.53424 -0.81284,1.78301 -0.81284,3.14648 0,0.81612 0.15405,1.67485 0.40642,2.44508 l 11.12414,34.13281 0.81612,0.4687 c 0.30154,0.17043 0.54408,0.24582 0.75712,0.2327 0.25565,-0.0131 0.4687,-0.14749 0.69813,-0.4097 l 0.93411,-1.04554 z m 0,0"
     id="path4731"
     inkscape:connector-curvature="0" />
  <path
     inkscape:connector-curvature="0"
     id="path4735"
     d="m 359.6728,21.43545 -3.6709,5.88327 c -2.58604,0 -5.02457,-0.71124 -6.87314,-0.98983 -0.3507,-0.0524 -0.66863,-0.059 -0.87511,-0.059 -0.44577,0 -0.58994,0.27531 -0.87185,0.69812 l -0.35068,0.52442 -0.58015,-0.34743 3.66765,-5.94226 c 1.33723,-0.0295 4.41492,0.65879 6.64038,1.10782 0.42609,0.0852 0.73747,0.059 0.98986,0.059 0.43259,0 0.67842,-0.2917 0.98981,-0.75712 l 0.3507,-0.52442 z m 0,0"
     style="fill:#211e1e;fill-opacity:1;fill-rule:nonzero;stroke:none;stroke-width:0.83906275" />
  <path
     inkscape:connector-curvature="0"
     id="path4737"
     d="m 346.39199,41.24192 -4.95244,5.35886 c -1.95345,-1.5667 -4.31986,-3.26121 -5.65058,-4.07733 v -0.11799 c 0.52443,-0.46542 0.58344,-0.95378 0.58344,-2.09766 V 21.61244 l -5.06717,-3.32348 c -0.42281,0.31137 -0.97015,0.71779 -1.16682,0.87512 v 20.7963 c 0,1.4028 0.46869,2.03866 1.45527,2.38609 v 0.11798 c -1.3471,1.26188 -3.23501,3.22843 -4.01834,4.13633 -1.41263,-1.20944 -3.65122,-2.88101 -4.83444,-3.67091 v -0.11471 c 0.87511,-0.52442 1.16682,-1.29465 1.16682,-2.68107 V 20.85531 l -1.28154,-1.10782 c -0.2196,-0.18682 -0.4228,-0.28843 -0.64241,-0.2917 -0.25892,-0.004 -0.53753,0.1311 -0.87183,0.46541 l -0.87511,0.87511 -0.52443,-0.46541 5.41785,-5.82427 5.00816,3.72661 4.95245,-3.78561 c 2.10092,1.51752 6.31589,3.91999 8.50532,5.00816 v 0.11798 c -0.70138,0.46542 -0.98983,1.16355 -0.98983,2.38609 v 18.69865 l 1.22256,0.81611 c 0.27532,0.18355 0.52112,0.29171 0.75713,0.29171 0.29168,0 0.57028,-0.12455 0.87183,-0.46869 l 0.46543,-0.52442 z m 0,0"
     style="fill:#211e1e;fill-opacity:1;fill-rule:nonzero;stroke:none;stroke-width:0.83906275" />
  <path
     inkscape:connector-curvature="0"
     id="path4739"
     d="m 276.08442,5.94229 -4.83444,5.18514 -3.02847,-2.21565 c -0.31139,-0.22615 -0.55394,-0.29826 -0.75714,-0.29171 -0.22942,0.01 -0.4097,0.118 -0.5834,0.29171 l -0.63913,0.6424 -0.46871,-0.40969 4.71974,-5.24087 2.96948,2.21238 c 0.30482,0.22615 0.57359,0.3507 0.81613,0.3507 0.25567,0 0.48509,-0.0786 0.70141,-0.29171 l 0.63913,-0.6424 z m 0,0"
     style="fill:#211e1e;fill-opacity:1;fill-rule:nonzero;stroke:none;stroke-width:0.83906275" />
  <path
     inkscape:connector-curvature="0"
     id="path4741"
     d="m 298.68341,17.24341 c -0.77679,1.70762 -2.09111,3.95933 -4.94916,3.95933 -2.56964,0 -4.31004,-1.45525 -5.41785,-3.0285 l -0.11801,0.059 v 20.1539 l 5.06715,2.56307 c 0.65225,0.32777 1.09474,0.46542 1.51754,0.46542 0.45231,0 0.87183,-0.2622 1.22253,-0.63913 l 0.75714,-0.81611 0.4654,0.40641 -5.70955,6.23398 c -3.0285,-1.80596 -7.68922,-4.25431 -10.42601,-5.47685 v -0.059 c 0.69813,-0.52442 0.93411,-1.1406 0.93411,-2.33037 V 20.21292 c 3.89379,-1.28154 6.83051,-2.9695 9.6099,-5.82428 1.75022,1.70762 3.81511,2.61551 6.99109,2.73679 z m 0,0"
     style="fill:#211e1e;fill-opacity:1;fill-rule:nonzero;stroke:none;stroke-width:0.83906275" />
  <path
     inkscape:connector-curvature="0"
     id="path4743"
     d="m 279.52263,40.7765 -5.18515,5.76528 c -1.69124,-1.34053 -4.03799,-3.04488 -5.88327,-4.13632 v -0.11472 c 0.63912,-0.52441 0.87183,-1.14715 0.87183,-2.03866 V 19.9212 l -1.22254,-0.81612 c -0.18026,-0.11799 -0.2917,-0.17371 -0.5244,-0.17371 -0.23926,0 -0.48181,0.16715 -0.69813,0.40642 l -0.87514,0.99311 -0.58012,-0.4687 5.00816,-5.41457 6.11598,3.84461 v 0.0557 c -0.75713,0.58342 -1.04884,1.2291 -1.04884,2.38936 v 19.92119 l 1.16682,0.6424 c 0.31795,0.17372 0.57687,0.23272 0.81613,0.23272 0.2917,0 0.55719,-0.18027 0.87183,-0.52441 l 0.64241,-0.70141 z m 0,0"
     style="fill:#211e1e;fill-opacity:1;fill-rule:nonzero;stroke:none;stroke-width:0.83906275" />
  <path
     inkscape:connector-curvature="0"
     id="path4745"
     d="m 265.54043,17.29913 c -0.77679,1.95344 -2.39264,3.9626 -4.65746,3.9626 -2.39919,0 -4.20187,-1.06194 -5.30314,-2.03866 h -0.11471 V 40.3078 l 1.74695,0.93412 c 0.61947,0.33103 0.86857,0.48507 1.16354,0.46542 0.2786,-0.0164 0.56047,-0.24911 0.87512,-0.58342 l 0.98984,-1.04883 0.52441,0.46542 -5.47357,6.06027 c -2.04194,-1.45853 -5.30969,-3.20221 -7.05009,-4.07733 v -0.059 c 0.75712,-0.58341 1.04883,-1.49458 1.04883,-2.56308 V 20.33089 l -1.39954,-0.98982 c -0.27532,-0.19666 -0.48836,-0.23599 -0.69812,-0.23599 -0.22288,0 -0.43265,0.14421 -0.69813,0.4097 l -0.93411,0.93083 -0.52114,-0.46541 5.06715,-5.47686 5.18515,4.13632 3.54963,-4.19203 c 1.6224,1.64862 3.73317,2.67451 6.58467,2.73678 z m 0,0"
     style="fill:#211e1e;fill-opacity:1;fill-rule:nonzero;stroke:none;stroke-width:0.83906275" />
  <path
     inkscape:connector-curvature="0"
     id="path4747"
     d="m 225.40963,40.7765 -5.47685,5.87999 c -2.00588,-1.47164 -4.54274,-3.2022 -5.94226,-4.13304 v -0.059 c 0.93082,-0.63913 0.93082,-1.11766 0.93082,-2.15665 V 22.07785 l -4.77544,-3.3202 -1.45525,1.28154 v 20.4456 c 0,0.79318 0.46542,1.39626 1.39625,1.80595 v 0.11472 l -4.01832,4.19532 c -1.50769,-1.22255 -3.61846,-2.82201 -4.89344,-3.6709 v -0.11473 c 0.98984,-0.75711 1.28154,-1.23565 1.28154,-2.27464 V 21.90414 l -5.00816,-3.43819 -1.34053,1.10782 v 20.67831 c 0,0.93084 0.52441,1.68796 1.51424,2.03866 v 0.11472 l -4.07732,4.19532 c -1.3012,-1.01934 -3.27758,-2.52048 -4.83444,-3.61191 v -0.11799 c 0.92101,-0.56703 1.22254,-1.47819 1.22254,-2.6188 V 20.44562 l -1.10782,-0.81611 c -0.2491,-0.18355 -0.47853,-0.23927 -0.69813,-0.23272 -0.31137,0.01 -0.59652,0.17699 -0.87512,0.46542 l -0.98983,1.04883 -0.58014,-0.52441 5.53258,-5.88 4.89344,4.07732 5.12615,-4.07732 c 2.14682,1.66174 5.12942,3.79872 6.9321,4.94916 l 5.47357,-4.94916 c 2.03538,1.5798 6.16187,4.26743 8.50535,5.70629 v 0.11798 c -0.92756,0.63913 -0.98984,1.34054 -0.98984,2.56308 v 17.64654 l 1.16355,0.7604 c 0.37364,0.23927 0.63257,0.35725 0.87511,0.34742 0.28187,-0.01 0.5408,-0.19337 0.93084,-0.58341 l 0.7604,-0.75712 z m 0,0"
     style="fill:#211e1e;fill-opacity:1;fill-rule:nonzero;stroke:none;stroke-width:0.83906275" />
  <path
     inkscape:connector-curvature="0"
     id="path4749"
     d="M 310.50896,41.99904 V 27.43671 l -1.86497,0.93084 c -2.50735,1.25531 -4.07403,3.72662 -4.07403,7.92193 0,3.49718 2.19271,5.77511 4.13303,6.8731 z m 10.37027,-1.28154 -5.30313,5.88328 -5.24086,-3.55291 -5.70955,3.55291 c -3.78564,-1.86495 -6.17498,-4.83445 -6.17498,-8.91177 0,-5.88327 5.92587,-8.20709 10.31129,-10.2523 l 1.74696,-0.81611 v -5.00816 l -7.04683,-3.49719 -0.52441,0.46869 c -0.177,0.69813 -0.23272,1.45525 -0.23272,2.67779 0,1.57325 0.81941,3.14649 1.74696,3.61191 l -0.3507,0.40642 c -2.47129,-0.17371 -4.17238,-2.56308 -4.54274,-5.00816 2.17305,-1.40936 5.78823,-4.2412 7.63024,-5.88327 l 10.66199,4.77545 v 0.11799 c -0.68175,0.63913 -1.04883,1.45525 -1.04883,2.79579 v 18.52165 l 0.98983,0.69813 c 0.35399,0.25237 0.62928,0.4097 0.87183,0.4097 0.31792,0 0.61947,-0.22288 0.93411,-0.58342 l 0.75713,-0.87511 z m 0,0"
     style="fill:#211e1e;fill-opacity:1;fill-rule:nonzero;stroke:none;stroke-width:0.83906275" />
  <path
     inkscape:connector-curvature="0"
     id="path4751"
     d="m 239.62126,26.09618 c -1.53391,-1.88789 -4.42802,-5.41786 -5.76856,-7.45652 l -0.17371,0.11799 v 11.30113 z m 5.99799,-3.08749 -11.94026,7.98093 v 7.57123 l 5.29986,2.73679 c 0.41297,0.21632 0.72107,0.29498 0.98983,0.29498 0.4097,0 0.72434,-0.22944 1.16682,-0.70141 l 0.87184,-0.93083 0.52442,0.46541 -5.64729,6.17499 c -3.90361,-2.38937 -7.68922,-4.48703 -10.48829,-5.88328 v -0.11799 c 0.99312,-0.46542 1.10783,-1.27499 1.10783,-2.44509 V 20.91103 c 3.8315,-1.27826 8.22675,-3.90033 11.06842,-6.4044 1.56341,2.17303 5.05404,6.38473 7.04682,8.50206"
     style="fill:#211e1e;fill-opacity:1;fill-rule:nonzero;stroke:none;stroke-width:0.83906275" />
  <path
     style="clip-rule:nonzero;fill:#211e1e;fill-opacity:1;fill-rule:nonzero;stroke:none;stroke-width:0.83906275"
     d="M 173.15831,29.59009 166.69163,8.73807 h -0.11472 l -6.05698,20.85202 z m 14.44434,10.9537 -5.64729,6.1127 c -1.51753,-1.15371 -4.58535,-3.3202 -6.29297,-4.31002 v -0.11472 c 0.46869,-0.32121 0.75385,-0.67519 0.81612,-1.16683 0.0262,-0.22287 0.0295,-0.46869 -0.059,-0.75712 l -2.91377,-9.49189 h -0.11472 l -1.10783,2.50407 h -0.059 c -0.5539,-0.4097 -1.57324,-0.52441 -2.96949,-0.52441 h -9.66889 l -2.21237,7.45651 c 1.1406,0.0394 2.92361,0.50148 4.19531,1.16355 0.27859,0.14749 0.53098,0.23926 0.75385,0.2327 0.2196,-0.007 0.41298,-0.1016 0.58341,-0.2917 l 0.63913,-0.69812 0.52441,0.46541 -5.12287,5.41786 c -0.92756,-0.87512 -3.23498,-1.92395 -4.77872,-1.92395 -3.02522,0 -4.60173,1.80595 -4.60173,3.6709 0,2.33037 1.33397,3.67091 3.49391,3.67091 1.73383,0 2.91377,-0.46543 3.6709,-0.87512 l -0.35071,1.16681 c -0.49164,0.23272 -1.63223,0.52442 -3.60862,0.52442 -2.4713,0 -5.06715,-1.75023 -5.06715,-5.18514 0,-4.48374 4.12648,-7.39752 8.32835,-7.45652 l 4.77544,-16.36828 c -0.52113,-0.28843 -1.59946,-0.69813 -2.38608,-0.69813 -1.56341,0 -2.85478,0.75713 -3.3202,1.97967 l -0.23271,-0.059 c -0.0852,-0.34087 -0.23598,-0.87512 -0.23598,-1.34054 0,-2.65484 1.80923,-5.18186 4.89344,-5.18186 0.89478,0 1.98622,0.28187 2.68106,0.52441 L 165.76079,6.7584 c -0.93083,-1.97966 -3.14648,-2.85478 -5.65056,-2.85478 -2.7204,0 -4.841,1.68796 -5.76528,2.67779 L 153.99425,6.3487 C 154.735,3.6119 157.48818,10e-6 163.25673,10e-6 c 2.45164,0 5.39819,1.06849 7.33853,3.26447 h 0.0557 c 0.29498,-1.22582 1.51097,-2.12388 2.39264,-2.33364 l 0.11471,0.118 c -0.32448,0.53424 -0.81611,1.78301 -0.81611,3.14648 0,0.81612 0.15733,1.67485 0.40642,2.44508 l 11.12741,34.13281 0.81612,0.4687 c 0.30154,0.17042 0.54408,0.24581 0.75713,0.2327 0.25237,-0.0131 0.46869,-0.14749 0.69812,-0.4097 l 0.93084,-1.04555 z m 0,0"
     id="path4753"
     inkscape:connector-curvature="0" />
  <path
     inkscape:connector-curvature="0"
     id="path4757"
     d="m 573.91892,41.20914 -4.94914,5.35886 c -1.95675,-1.56341 -4.32316,-3.2612 -5.6506,-4.07732 v -0.11799 c 0.52118,-0.46542 0.58015,-0.95378 0.58015,-2.09766 V 21.57967 l -5.06716,-3.32021 c -0.42281,0.30809 -0.9669,0.71452 -1.16353,0.87512 V 39.9276 c 0,1.40609 0.46542,2.03866 1.45526,2.38936 v 0.11472 c -1.35038,1.26515 -3.23827,3.22842 -4.01834,4.13632 -1.41266,-1.20943 -3.65453,-2.881 -4.83446,-3.6709 v -0.11471 c 0.87185,-0.52442 1.16358,-1.29138 1.16358,-2.68108 V 20.82254 l -1.28153,-1.10783 c -0.21633,-0.18682 -0.42286,-0.28843 -0.63918,-0.29171 -0.26218,-0.004 -0.54076,0.13111 -0.87509,0.4687 l -0.87511,0.87184 -0.52443,-0.46542 5.41785,-5.82427 5.01145,3.72661 4.94916,-3.78561 c 2.10092,1.5208 6.31592,3.92 8.50532,5.00815 v 0.118 c -0.6981,0.46542 -0.98981,1.16355 -0.98981,2.38609 v 18.69863 l 1.22254,0.81613 c 0.2786,0.18354 0.52112,0.29171 0.7571,0.29171 0.29171,0 0.57031,-0.12455 0.87514,-0.46542 l 0.46543,-0.52442 z m 0,0"
     style="fill:#211e1e;fill-opacity:1;fill-rule:nonzero;stroke:none;stroke-width:0.83906275" />
  <path
     inkscape:connector-curvature="0"
     id="path4759"
     d="m 525.63021,40.74372 -5.47359,5.88328 c -2.00914,-1.47492 -4.54271,-3.20548 -5.94225,-4.13632 v -0.059 c 0.93083,-0.63913 0.93083,-1.11766 0.93083,-2.15665 V 22.04507 l -4.77544,-3.32019 -1.45852,1.28154 v 20.4456 c 0,0.79319 0.46869,1.39626 1.39954,1.80596 v 0.11472 l -4.01835,4.19531 c -1.51096,-1.22255 -3.62173,-2.82201 -4.89342,-3.6709 v -0.11472 c 0.98983,-0.75713 1.28154,-1.23565 1.28154,-2.27137 V 21.87137 l -5.00817,-3.43818 -1.34054,1.10782 v 20.6783 c 0,0.93083 0.52441,1.68796 1.51424,2.03866 v 0.11472 l -4.07731,4.19531 c -1.30122,-1.01934 -3.28086,-2.52047 -4.83447,-3.6119 v -0.118 c 0.91776,-0.56702 1.22256,-1.4782 1.22256,-2.61879 V 20.41284 L 489.04903,19.6 c -0.24908,-0.18683 -0.48178,-0.23927 -0.69811,-0.23599 -0.31464,0.0131 -0.59978,0.17699 -0.87513,0.46869 l -0.98983,1.04883 -0.52441,-0.52769 5.47685,-5.87999 4.89344,4.07732 5.12615,-4.07732 c 2.14354,1.66173 5.12942,3.79872 6.93208,4.95243 l 5.47359,-4.95243 c 2.03539,1.5798 6.16188,4.26741 8.50535,5.70628 v 0.11799 c -0.92757,0.63913 -0.98983,1.34381 -0.98983,2.56308 v 17.64982 l 1.16353,0.75712 c 0.37039,0.23926 0.63259,0.35725 0.87514,0.34742 0.27858,-0.01 0.5408,-0.1901 0.93083,-0.58013 l 0.7571,-0.7604 z m 0,0"
     style="fill:#211e1e;fill-opacity:1;fill-rule:nonzero;stroke:none;stroke-width:0.83906275" />
  <path
     inkscape:connector-curvature="0"
     id="path4761"
     d="m 444.89663,40.56673 -5.41785,6.00127 c -2.32052,-1.56669 -5.81445,-3.67418 -7.97763,-4.83444 v -0.118 c 0.48506,-0.39331 0.69813,-0.88495 0.69813,-1.86167 v -20.8553 h -3.49393 l 1.16356,-2.15337 h 2.38937 v -3.90361 c 0,-0.87512 -0.0199,-1.57325 -0.70144,-2.09766 v -0.11472 c 3.09078,-0.2917 4.70334,-3.9036 8.03995,-3.9626 l 0.11472,0.23271 c -0.80304,0.52441 -1.33728,1.69124 -1.33728,3.90361 v 5.76856 h 5.41787 l -1.34382,2.79578 c -0.36708,-0.29171 -0.80301,-0.4687 -1.56996,-0.4687 h -2.50409 v 20.62259 l 3.0285,1.56996 c 0.52768,0.27532 0.90463,0.40643 1.22256,0.4097 0.37034,0.004 0.66532,-0.17043 1.04881,-0.58341 l 0.75713,-0.81612 z m 0,0"
     style="fill:#211e1e;fill-opacity:1;fill-rule:nonzero;stroke:none;stroke-width:0.83906275" />
  <path
     inkscape:connector-curvature="0"
     id="path4763"
     d="m 405.92938,40.56673 -5.41782,6.00127 c -2.32056,-1.56669 -5.81446,-3.67418 -7.98097,-4.83444 v -0.118 c 0.48511,-0.39331 0.69815,-0.88495 0.69815,-1.86167 v -20.8553 h -3.49392 l 1.16681,-2.15337 h 2.38609 v -3.90361 c 0,-0.87512 -0.0198,-1.57325 -0.6981,-2.09766 v -0.11472 c 3.09075,-0.2917 4.70005,-3.9036 8.03989,-3.9626 l 0.11472,0.23271 c -0.80301,0.52441 -1.34051,1.69124 -1.34051,3.90361 v 5.76856 h 5.41785 l -1.34054,2.79578 c -0.37036,-0.29171 -0.80301,-0.4687 -1.57326,-0.4687 h -2.50405 v 20.62259 l 3.0285,1.56996 c 0.53097,0.27532 0.90459,0.40643 1.22251,0.4097 0.37039,0.004 0.66865,-0.17043 1.04883,-0.58341 l 0.75714,-0.81612 z m 0,0"
     style="fill:#211e1e;fill-opacity:1;fill-rule:nonzero;stroke:none;stroke-width:0.83906275" />
  <path
     inkscape:connector-curvature="0"
     id="path4765"
     d="m 384.14327,34.15904 c 0,1.51425 -0.58343,2.97278 -0.98983,3.49719 h -0.1737 c 0.0557,-0.46542 0.11467,-1.24221 0.11467,-1.69123 0,-3.19237 -0.74073,-6.36836 -5.59155,-8.79377 -1.97966,-0.98984 -3.66106,-1.87479 -4.89347,-2.44836 l -2.09764,3.84461 c -1.77644,3.2612 -4.04781,4.71973 -6.58138,4.71973 -0.85545,0 -1.51751,-0.33432 -1.97966,-0.58341 l 1.39623,-2.44508 c 0.43265,0.52441 0.98986,0.87184 1.75025,0.87184 1.9174,0 3.67416,-1.03245 4.83446,-3.0875 l 2.03539,-3.60862 c -1.23897,-0.57685 -2.32712,-1.10782 -4.54276,-2.15665 -3.70367,-1.75352 -5.65055,-3.55291 -5.65055,-6.5224 0,-0.99311 0.29167,-2.21566 0.5244,-2.68107 h 0.17698 c 0.18357,2.91377 0.89808,4.77872 5.5326,7.10581 3.66104,1.84201 7.13531,3.5529 10.65868,5.29986 4.08718,2.02882 5.47688,5.01143 5.47688,8.67905"
     style="fill:#211e1e;fill-opacity:1;fill-rule:nonzero;stroke:none;stroke-width:0.83906275" />
  <path
     inkscape:connector-curvature="0"
     id="path4767"
     d="M 538.03914,41.96626 V 27.40393 l -1.86494,0.93084 c -2.51063,1.25532 -4.07733,3.9626 -4.07733,7.92193 0,3.29398 2.19601,5.77512 4.13633,6.87311 z m 10.36704,-1.28153 -5.29989,5.88327 -5.24415,-3.55291 -5.70952,3.55291 c -3.29727,-1.46508 -6.1717,-5.1917 -6.1717,-8.91177 0,-5.88327 5.92587,-8.20708 10.30801,-10.2523 l 1.75021,-0.81611 v -5.00815 l -7.05008,-3.49392 -0.52441,0.46542 c -0.17372,0.69812 -0.2327,1.45525 -0.2327,2.67779 0,1.57324 0.81939,3.14649 1.74691,3.6119 l -0.35065,0.40642 c -2.46803,-0.17371 -4.16912,-2.55979 -4.54274,-5.00815 2.17303,-1.40937 5.78819,-4.24121 7.63022,-5.88327 l 10.66196,4.77544 v 0.11799 c -0.68169,0.64241 -1.0488,1.45526 -1.0488,2.79578 v 18.52166 l 0.98983,0.70141 c 0.35396,0.24909 0.62931,0.40641 0.87513,0.40641 0.31465,0 0.61945,-0.22287 0.93084,-0.58341 l 0.7571,-0.87183 z m 0,0"
     style="fill:#211e1e;fill-opacity:1;fill-rule:nonzero;stroke:none;stroke-width:0.83906275" />
  <path
     inkscape:connector-curvature="0"
     id="path4769"
     d="m 479.20642,42.43168 v -8.44635 l -3.84461,-1.92066 -6.34867,9.60988 c 1.16355,-0.63912 2.67779,-1.22254 5.35887,-1.22254 1.29794,0 2.90391,0.57686 4.71646,1.97967 z m 3.20225,-22.25155 c -0.51133,0.24254 -2.36643,0.75712 -3.72665,0.75712 -1.75022,0 -3.78561,-0.69812 -5.76527,-2.73679 l -0.059,0.059 v 7.39752 l 4.48374,2.27137 z m 4.13631,-5.82427 c 0,0.46542 -0.48183,1.58962 -0.69815,1.92394 l -7.22379,11.12413 7.22379,3.49391 v 0.118 c -0.64241,0.40642 -0.93411,0.93739 -0.93411,2.09765 v 8.56106 c -3.2743,0.87512 -7.49255,3.08749 -9.84258,4.89345 -1.10787,-0.98983 -2.33037,-1.80596 -4.19206,-1.80596 -2.72039,0 -4.36901,1.16355 -4.36901,2.85479 0,2.15337 2.32706,2.96949 3.90033,2.96949 l -0.69813,0.81612 c -1.91411,-0.23271 -4.13631,-1.51424 -4.13631,-4.19531 0,-2.14682 1.40279,-3.69057 2.27136,-5.00816 l 6.35196,-9.60989 -8.03994,-4.07733 v -0.11798 c 0.84238,-0.55064 0.93085,-1.28154 0.93085,-2.56308 v -5.88327 c 3.39887,-0.87184 7.44342,-3.49391 9.72789,-5.53257 1.84853,1.53063 3.55293,2.62207 5.29986,2.62207 2.28778,0 3.61188,-1.40609 3.61188,-2.50736 0,-0.98983 -0.34739,-1.39625 -0.8161,-1.74695 l 0.93411,-0.63913 c 0.36383,0.37364 0.69815,0.92756 0.69815,2.21238"
     style="fill:#211e1e;fill-opacity:1;fill-rule:nonzero;stroke:none;stroke-width:0.83906275" />
  <path
     inkscape:connector-curvature="0"
     id="path4771"
     d="m 459.05255,26.06341 c -1.53392,-1.8879 -4.42804,-5.41787 -5.76855,-7.45325 l -0.1737,0.11472 v 11.30113 z m 5.998,-3.0875 -11.94025,7.98093 v 7.57123 l 5.29984,2.74007 c 0.41297,0.21304 0.72435,0.2917 0.98984,0.2917 0.4097,0 0.72107,-0.22615 1.16681,-0.7014 l 0.87185,-0.93084 0.52441,0.46542 -5.64727,6.17498 c -3.90363,-2.38936 -7.68927,-4.48702 -10.48829,-5.88327 v -0.118 c 0.9898,-0.46542 1.10781,-1.27498 1.10781,-2.44508 V 20.88153 c 3.83148,-1.28153 8.22674,-3.9036 11.06842,-6.40768 1.56339,2.17304 5.05407,6.38474 7.04683,8.50206"
     style="fill:#211e1e;fill-opacity:1;fill-rule:nonzero;stroke:none;stroke-width:0.83906275" />
  <path
     inkscape:connector-curvature="0"
     id="path4773"
     d="M 418.97746,41.96626 V 27.40393 l -1.86494,0.93084 c -2.51063,1.25532 -4.07733,3.6709 -4.07733,7.92193 0,3.55618 2.19601,5.77512 4.13633,6.87311 z m 10.36701,-1.28153 -5.29986,5.88327 -5.24415,-3.55291 -5.70952,3.55291 c -3.29727,-1.46508 -6.1717,-4.83444 -6.1717,-8.91177 0,-5.88327 5.92584,-8.20708 10.30801,-10.2523 l 1.75021,-0.81611 v -5.00815 l -7.05008,-3.49392 -0.52441,0.46542 c -0.17372,0.69812 -0.2327,1.45525 -0.2327,2.67779 0,1.57324 0.81939,3.14649 1.74697,3.6119 l -0.34745,0.40642 c -2.47457,-0.17371 -4.17566,-2.55979 -4.54274,-5.00815 2.17305,-1.40937 5.78493,-4.24121 7.62696,-5.88327 L 426.316,19.1313 v 0.11799 c -0.68172,0.64241 -1.04883,1.45526 -1.04883,2.79578 v 18.52166 l 0.98983,0.70141 c 0.35396,0.24909 0.62928,0.40641 0.87513,0.40641 0.31465,0 0.61945,-0.22287 0.93084,-0.58341 l 0.7571,-0.87183 z m 0,0"
     style="fill:#211e1e;fill-opacity:1;fill-rule:nonzero;stroke:none;stroke-width:0.83906275" />
  <path
     style="clip-rule:nonzero;fill:#211e1e;fill-opacity:1;fill-rule:nonzero;stroke:none;stroke-width:0.83906275"
     d="m 381.8719,7.19105 c -1.66828,-2.33037 -4.83447,-3.66763 -7.86297,-3.66763 -5.12614,0 -7.57449,1.46509 -7.57449,4.19204 0,2.10749 1.87479,3.73318 4.66074,5.12615 2.44507,1.22253 3.83805,1.92722 5.70955,2.85478 1.18976,-2.06488 3.72661,-6.46668 5.06717,-8.50534 m 7.98092,22.42526 c 0,7.0632 -5.55226,11.24213 -13.33979,16.95169 -2.15664,-1.86495 -5.07701,-3.84462 -7.98092,-3.84462 -5.18517,0 -8.97075,2.03866 -8.97075,4.95244 0,2.85478 2.65155,4.36903 5.18512,4.36903 1.82563,0 2.99244,-0.64241 3.61191,-0.93411 l -0.29171,1.16681 c -0.43264,0.17372 -1.57324,0.63914 -3.6119,0.63914 -3.95605,0 -6.87311,-2.21238 -6.87311,-6.34869 0,-6.81738 6.34214,-9.61318 12.52368,-9.61318 5.25068,0 9.21986,2.77613 11.47485,4.66074 2.16318,-1.97966 3.95933,-4.60173 3.95933,-7.92193 0,-4.07732 -1.91744,-7.68923 -5.5326,-9.43618 -3.51684,-1.70107 -6.85017,-3.2612 -10.31129,-4.89016 -4.16253,-1.96328 -6.28967,-3.87083 -6.28967,-8.33163 0,-5.47358 4.53615,-10.77671 12.75636,-10.77671 3.38904,0 6.5224,0.93411 8.56432,2.27136 l 0.98986,-1.51424 0.6981,0.40969 c -2.76299,4.11994 -6.93536,10.83244 -8.91175,14.61805 1.48148,0.70141 2.91053,1.37003 5.18515,2.50736 5.1327,2.56308 7.16481,5.93899 7.16481,11.06514"
     id="path4775"
     inkscape:connector-curvature="0" />
  <path
     inkscape:connector-curvature="0"
     id="path4779"
     d="m 135.07928,45.26024 c -1.09471,-0.83578 -3.16942,-2.2812 -4.54273,-3.2022 0.2327,-0.40971 0.2917,-0.75713 0.2917,-1.39953 V 20.67832 l -5.30314,-3.37919 -0.75712,0.58341 5.18515,3.3202 v 19.39677 c 0,0.96361 -0.059,1.34053 -0.40642,1.75023 1.16354,0.75057 3.66434,2.51063 4.95243,3.54963 z m 0,0"
     style="fill:#ffffff;fill-opacity:1;fill-rule:nonzero;stroke:none;stroke-width:0.83906275" />
  <path
     inkscape:connector-curvature="0"
     id="path4781"
     d="m 106.42005,9.7279 -2.73679,-2.03866 c -0.2327,-0.17371 -0.58341,-0.29171 -0.87183,-0.3507 l -0.58342,0.70141 c 0.34743,0.059 0.64241,0.16387 0.81612,0.29169 l 2.79578,2.03867 z m 0,0"
     style="fill:#ffffff;fill-opacity:1;fill-rule:nonzero;stroke:none;stroke-width:0.83906275" />
  <path
     inkscape:connector-curvature="0"
     id="path4783"
     d="m 121.15937,45.26024 -3.43819,-2.56308 c 0.46542,-0.40642 0.63913,-1.15371 0.63913,-1.92066 V 20.21291 l -1.92067,-1.68796 c -0.21305,-0.1901 -0.52441,-0.29171 -0.87185,-0.29171 l -0.5834,0.69813 c 0.40642,0 0.64896,0.095 0.81612,0.23271 l 1.68796,1.39953 v 20.0949 c 0,1.10782 -0.3507,1.63223 -0.87185,2.21564 l 3.95933,2.9695 z m 0,0"
     style="fill:#ffffff;fill-opacity:1;fill-rule:nonzero;stroke:none;stroke-width:0.83906275" />
  <path
     inkscape:connector-curvature="0"
     id="path4785"
     d="m 98.55712,18.00053 c -0.29171,-0.17371 -0.81941,-0.2327 -1.16355,-0.2327 h -3.08749 v 0.75712 h 2.6778 c 0.52441,0 0.9341,0.0557 1.22581,0.2327 z m 0,0"
     style="fill:#ffffff;fill-opacity:1;fill-rule:nonzero;stroke:none;stroke-width:0.83906275" />
  <path
     inkscape:connector-curvature="0"
     id="path4787"
     d="m 89.52736,16.77799 v -4.13632 c 0,-0.7014 -0.17371,-1.51752 -0.46542,-1.92394 l -0.81612,0.23271 c 0.3507,0.4097 0.4097,1.04883 0.4097,1.92395 v 3.9036 z m 0,0"
     style="fill:#ffffff;fill-opacity:1;fill-rule:nonzero;stroke:none;stroke-width:0.83906275" />
  <path
     inkscape:connector-curvature="0"
     id="path4789"
     d="m 109.45182,45.20125 c -1.10455,-0.8194 -3.08749,-2.16977 -4.60501,-3.14321 0.46869,-0.40971 0.52441,-0.92101 0.52441,-1.69124 V 19.16408 l -1.68796,-1.16355 c -0.23926,-0.16388 -0.46542,-0.29171 -0.75712,-0.3507 l -0.58341,0.69813 c 0.3507,0.059 0.53424,0.18027 0.69813,0.2917 l 1.45853,0.98984 v 20.62258 c 0,1.10455 -0.177,1.45526 -0.69813,2.03866 1.28808,0.75385 3.84461,2.56308 5.12614,3.55291 z m 0,0"
     style="fill:#ffffff;fill-opacity:1;fill-rule:nonzero;stroke:none;stroke-width:0.83906275" />
  <path
     inkscape:connector-curvature="0"
     id="path4791"
     d="m 95.93505,45.20125 c -1.68469,-1.05867 -4.89017,-3.00884 -6.6404,-4.01833 0.17699,-0.46542 0.23599,-1.00295 0.23599,-1.68796 V 17.76783 h -3.7299 l -0.40642,0.75712 h 3.2612 v 21.14372 c 0,1.16355 -0.059,1.51425 -0.4097,1.86496 2.07144,1.18648 5.3523,3.18908 7.10909,4.31002 z m 0,0"
     style="fill:#ffffff;fill-opacity:1;fill-rule:nonzero;stroke:none;stroke-width:0.83906275" />
  <path
     inkscape:connector-curvature="0"
     id="path4793"
     d="m 81.19901,19.22307 c -1.10783,0.3507 -1.86495,0.46542 -3.72662,0.46542 -2.15665,0 -4.07732,-1.45525 -5.07044,-2.44508 l -0.87183,0.52442 c 0.93084,0.93083 3.0285,2.67778 5.59156,2.67778 1.45526,0 3.20549,-0.52113 3.96261,-0.93083 z m 0,0"
     style="fill:#ffffff;fill-opacity:1;fill-rule:nonzero;stroke:none;stroke-width:0.83906275" />
  <path
     inkscape:connector-curvature="0"
     id="path4795"
     d="m 73.27707,31.51403 -6.8141,-3.55291 c 0.2917,-0.52441 0.2917,-1.03571 0.2917,-1.86494 v -5.88327 l -0.87512,0.2327 v 5.47686 c 0,1.28153 -0.11471,1.86167 -0.5834,2.38608 l 7.5155,3.84461 z m 0,0"
     style="fill:#ffffff;fill-opacity:1;fill-rule:nonzero;stroke:none;stroke-width:0.83906275" />
  <path
     inkscape:connector-curvature="0"
     id="path4797"
     d="m 78.86864,42.75616 v -9.72788 l -4.42802,-2.21566 -0.52442,0.76041 4.0806,2.03538 v 9.55417 z m 0,0"
     style="fill:#ffffff;fill-opacity:1;fill-rule:nonzero;stroke:none;stroke-width:0.83906275" />
  <path
     inkscape:connector-curvature="0"
     id="path4799"
     d="M 60.16999,45.08652 56.09268,42.17275 V 20.44561 c 0,-1.45524 -0.52442,-2.38608 -1.22255,-2.73679 l -0.63912,0.63914 c 0.63912,0.2917 0.98983,0.93411 0.98983,2.44835 v 21.84186 l 4.31003,3.08749 z m 0,0"
     style="fill:#ffffff;fill-opacity:1;fill-rule:nonzero;stroke:none;stroke-width:0.83906275" />
  <path
     inkscape:connector-curvature="0"
     id="path4801"
     d="M 74.15219,45.31923 C 73.56878,44.73583 71.82183,43.569 69.89788,43.569 c -2.27137,0 -3.55291,0.8194 -4.36903,1.57325 v 0.23598 c 0.87512,-0.6424 1.69124,-1.04882 3.96261,-1.04882 1.80595,0 3.08749,0.93083 3.90033,1.57324 z m 0,0"
     style="fill:#ffffff;fill-opacity:1;fill-rule:nonzero;stroke:none;stroke-width:0.83906275" />
  <path
     inkscape:connector-curvature="0"
     id="path4803"
     d="m 49.92098,45.43395 -7.0501,-4.36903 c 0.46542,-0.40641 0.58341,-1.09143 0.58341,-1.86167 V 19.6295 l -1.97966,-1.28154 c -0.24582,-0.15405 -0.4687,-0.28843 -0.75712,-0.34743 l -0.64241,0.69813 c 0.3507,0.059 0.57358,0.18027 0.75713,0.29171 l 1.74695,1.04882 v 19.04607 c 0,1.10783 -0.23271,1.63224 -0.75712,2.21238 l 7.39751,4.66072 z m 0,0"
     style="fill:#ffffff;fill-opacity:1;fill-rule:nonzero;stroke:none;stroke-width:0.83906275" />
  <path
     inkscape:connector-curvature="0"
     id="path4805"
     d="m 34.71624,45.26024 -4.66073,-3.2612 c 0.3507,-0.35071 0.4687,-0.74074 0.4687,-1.22254 0,-0.30154 -0.10489,-0.59325 -0.17699,-0.81612 L 20.21291,7.51553 C 19.16408,4.15272 16.48302,2.56309 13.0481,2.56309 c -2.03866,0 -3.14648,0.75713 -3.84461,1.34053 l -0.059,0.17372 c 0.98983,-0.46542 1.97966,-0.81285 3.43819,-0.81285 3.50046,0 5.88982,1.68796 6.8731,4.83445 l 10.01959,32.03515 c 0.0885,0.28515 0.11471,0.53425 0.11471,0.75712 0,0.54736 -0.17371,0.93411 -0.63912,1.28154 l 5.24086,3.6709 z m 0,0"
     style="fill:#ffffff;fill-opacity:1;fill-rule:nonzero;stroke:none;stroke-width:0.83906275" />
  <path
     inkscape:connector-curvature="0"
     id="path4807"
     d="m 13.51352,22.48428 c -0.79645,-0.34416 -1.68796,-0.63914 -2.50408,-0.63914 -1.10782,0 -1.80595,0.40643 -2.33036,0.98984 v 0.2327 c 0.52441,-0.40641 1.22254,-0.5834 2.09765,-0.5834 0.6883,0 1.80595,0.3507 2.50408,0.75711 z m 0,0"
     style="fill:#ffffff;fill-opacity:1;fill-rule:nonzero;stroke:none;stroke-width:0.83906275" />
  <path
     inkscape:connector-curvature="0"
     id="path4809"
     d="M 24.75565,31.80574 C 24.46394,31.62875 23.64782,31.39603 22.36629,31.39603 H 12.29098 l -0.23271,0.75713 h 9.9016 c 1.28153,0 2.15665,0.23271 2.44836,0.4097 z m 0,0"
     style="fill:#ffffff;fill-opacity:1;fill-rule:nonzero;stroke:none;stroke-width:0.83906275" />
  <path
     inkscape:connector-curvature="0"
     id="path4811"
     d="m 11.70757,45.02753 c -0.87184,-0.69812 -2.56308,-1.74695 -4.54274,-1.74695 -2.50408,0 -3.84461,1.04883 -4.42802,1.86167 l -0.11472,0.3507 c 0.75713,-0.75712 1.80595,-1.45525 4.01833,-1.45525 1.80595,0 3.37919,0.81284 4.54273,1.62896 z m 0,0"
     style="fill:#ffffff;fill-opacity:1;fill-rule:nonzero;stroke:none;stroke-width:0.83906275" />
  <path
     inkscape:connector-curvature="0"
     id="path4813"
     d="m 356.17559,25.98146 c -1.66502,0.0623 -5.0901,-0.79645 -6.75513,-1.04883 -0.28842,-0.0459 -0.6424,-0.0131 -0.93083,0.0557 l -0.5244,0.87511 c 0.34086,-0.095 0.72107,-0.14749 0.93083,-0.11471 1.67815,0.2491 4.91966,1.1111 6.81413,1.04555 z m 0,0"
     style="fill:#ffffff;fill-opacity:1;fill-rule:nonzero;stroke:none;stroke-width:0.83906275" />
  <path
     inkscape:connector-curvature="0"
     id="path4815"
     d="m 342.02295,45.26024 c -1.09471,-0.83578 -3.16941,-2.2812 -4.54273,-3.2022 0.23272,-0.40971 0.2917,-0.75713 0.2917,-1.39953 V 20.67832 l -5.30312,-3.37919 -0.75714,0.58341 5.18515,3.3202 v 19.39677 c 0,0.96361 -0.059,1.34053 -0.40643,1.75023 1.16028,0.75057 3.66435,2.51063 4.94917,3.54963 z m 0,0"
     style="fill:#ffffff;fill-opacity:1;fill-rule:nonzero;stroke:none;stroke-width:0.83906275" />
  <path
     inkscape:connector-curvature="0"
     id="path4817"
     d="m 328.09976,45.26024 -3.4349,-2.56308 c 0.4654,-0.40642 0.63912,-1.15371 0.63912,-1.92066 V 20.21291 l -1.92066,-1.68796 c -0.21632,-0.1901 -0.52443,-0.29171 -0.87511,-0.29171 l -0.58015,0.69813 c 0.40643,0 0.64897,0.095 0.81285,0.23271 l 1.69125,1.39953 v 20.0949 c 0,1.10782 -0.35071,1.63223 -0.87514,2.21564 l 3.96261,2.9695 z m 0,0"
     style="fill:#ffffff;fill-opacity:1;fill-rule:nonzero;stroke:none;stroke-width:0.83906275" />
  <path
     inkscape:connector-curvature="0"
     id="path4819"
     d="m 302.87872,24.40822 c -0.93083,-0.90134 -1.96982,-2.5893 -1.97966,-4.36903 l -0.69813,0.46542 c 0.40642,2.03866 1.60274,3.35298 2.56307,3.95933 z m 0,0"
     style="fill:#ffffff;fill-opacity:1;fill-rule:nonzero;stroke:none;stroke-width:0.83906275" />
  <path
     inkscape:connector-curvature="0"
     id="path4821"
     d="m 316.10051,45.26024 -4.19204,-2.79579 V 20.73732 l -7.22381,-3.6119 -0.7571,0.5834 7.10581,3.49392 v 21.61242 l 4.48701,3.08421 z m 0,0"
     style="fill:#ffffff;fill-opacity:1;fill-rule:nonzero;stroke:none;stroke-width:0.83906275" />
  <path
     inkscape:connector-curvature="0"
     id="path4823"
     d="m 296.70374,19.45579 -0.0557,-0.11472 c -0.5834,0.2917 -1.34051,0.58013 -2.74005,0.58013 -2.09767,0 -3.78563,-1.68796 -4.54274,-2.79578 l -0.75713,0.5834 c 0.87186,1.04883 2.33037,2.9695 5.24087,2.9695 1.51752,0 2.56307,-0.87184 2.85477,-1.22253"
     style="fill:#ffffff;fill-opacity:1;fill-rule:nonzero;stroke:none;stroke-width:0.83906275" />
  <path
     inkscape:connector-curvature="0"
     id="path4825"
     d="m 305.32707,45.55195 c -1.63224,-0.81612 -5.47685,-3.72663 -5.47685,-7.86294 0,-2.50736 0.63913,-4.07732 1.22254,-4.95244 h -0.1737 c -0.52441,0.52442 -1.92395,2.27137 -1.92395,4.95244 0,4.01833 3.20548,7.16153 5.59157,8.32835 z m 0,0"
     style="fill:#ffffff;fill-opacity:1;fill-rule:nonzero;stroke:none;stroke-width:0.83906275" />
  <path
     inkscape:connector-curvature="0"
     id="path4827"
     d="m 271.77441,9.7279 -2.7368,-2.03866 c -0.23598,-0.17371 -0.5834,-0.29171 -0.87511,-0.3507 l -0.5834,0.70141 c 0.35068,0.059 0.64566,0.16387 0.81611,0.29169 l 2.79577,2.03867 z m 0,0"
     style="fill:#ffffff;fill-opacity:1;fill-rule:nonzero;stroke:none;stroke-width:0.83906275" />
  <path
     inkscape:connector-curvature="0"
     id="path4829"
     d="m 291.92828,45.37823 c -2.34675,-1.40608 -6.28311,-3.50374 -8.85275,-4.71972 0.34743,-0.4097 0.34743,-1.03573 0.34743,-1.80596 V 20.3309 l -0.87186,0.2917 v 18.11523 c 0,1.10456 -0.059,1.62897 -0.5834,2.21238 3.20222,1.51424 7.10908,3.65124 9.43617,5.00815 z m 0,0"
     style="fill:#ffffff;fill-opacity:1;fill-rule:nonzero;stroke:none;stroke-width:0.83906275" />
  <path
     inkscape:connector-curvature="0"
     id="path4831"
     d="m 263.50177,19.6295 -0.0557,-0.23272 c -0.4687,0.23272 -1.34053,0.58342 -2.44836,0.58342 -1.97966,0 -3.72662,-1.22255 -4.48375,-1.92067 l -0.6424,0.75713 c 1.04883,0.87183 2.68107,1.92066 5.06715,1.92066 1.10783,0 2.15665,-0.63913 2.56308,-1.10782"
     style="fill:#ffffff;fill-opacity:1;fill-rule:nonzero;stroke:none;stroke-width:0.83906275" />
  <path
     inkscape:connector-curvature="0"
     id="path4833"
     d="m 274.80288,45.20125 c -1.10453,-0.8194 -3.08747,-2.16977 -4.60173,-3.14321 0.46542,-0.40971 0.52443,-0.92101 0.52443,-1.69124 V 19.16408 l -1.68797,-1.16355 c -0.23926,-0.16388 -0.46868,-0.29171 -0.75713,-0.3507 l -0.5834,0.69813 c 0.34742,0.059 0.53424,0.18027 0.69813,0.2917 l 1.45523,0.98984 v 20.62258 c 0,1.10455 -0.1737,1.45526 -0.6981,2.03866 1.28809,0.75385 3.8446,2.56308 5.12614,3.55291 z m 0,0"
     style="fill:#ffffff;fill-opacity:1;fill-rule:nonzero;stroke:none;stroke-width:0.83906275" />
  <path
     inkscape:connector-curvature="0"
     id="path4835"
     d="m 255.75355,45.26024 -5.53257,-3.2022 c 0.46542,-0.40971 0.46542,-1.098 0.46542,-1.86495 V 19.57377 l -2.03867,-1.45852 c -0.2327,-0.16388 -0.46541,-0.28843 -0.75712,-0.34742 l -0.58014,0.69812 c 0.34744,0.059 0.52115,0.17043 0.69813,0.2917 l 1.80596,1.22255 v 20.09489 c 0,1.10783 -0.23271,1.69124 -0.75713,2.27465 1.7994,0.94394 4.57224,2.53686 6.17498,3.54963 z m 0,0"
     style="fill:#ffffff;fill-opacity:1;fill-rule:nonzero;stroke:none;stroke-width:0.83906275" />
  <path
     inkscape:connector-curvature="0"
     id="path4837"
     d="m 240.95851,25.22106 c -1.44542,-1.65518 -4.42147,-5.33592 -5.88327,-7.39424 l -0.75712,0.52114 c 1.29465,1.83217 4.24447,5.60796 5.82755,7.45651 z m 0,0"
     style="fill:#ffffff;fill-opacity:1;fill-rule:nonzero;stroke:none;stroke-width:0.83906275" />
  <path
     inkscape:connector-curvature="0"
     id="path4839"
     d="m 237.29089,45.26024 -8.91176,-4.95244 c 0.46542,-0.40642 0.52441,-1.03572 0.52441,-1.80267 v -17.4761 l -0.87512,0.2917 v 17.06641 c 0,1.10782 -0.11471,1.63224 -0.69812,2.15665 2.94328,1.55686 7.05665,3.92983 9.43618,5.35558 z m 0,0"
     style="fill:#ffffff;fill-opacity:1;fill-rule:nonzero;stroke:none;stroke-width:0.83906275" />
  <path
     inkscape:connector-curvature="0"
     id="path4841"
     d="m 220.4572,45.31923 -4.48703,-3.14648 c 0.35071,-0.34743 0.35071,-0.94395 0.35071,-1.62896 V 21.20274 l -5.12615,-3.55291 -0.64241,0.64241 4.89344,3.43491 v 18.58393 c 0,1.28154 -0.11472,1.68796 -0.63913,2.09438 l 5.06715,3.5529 z m 0,0"
     style="fill:#ffffff;fill-opacity:1;fill-rule:nonzero;stroke:none;stroke-width:0.83906275" />
  <path
     inkscape:connector-curvature="0"
     id="path4843"
     d="m 206.593,45.26024 -3.4382,-2.56308 c 0.4687,-0.40642 0.70141,-1.04883 0.70141,-1.92066 V 21.02903 l -5.29987,-3.55291 -0.7014,0.58341 5.12615,3.49391 v 19.27878 c 0,0.96361 -0.2917,1.51752 -0.98983,2.04193 l 4.01833,3.02522 z m 0,0"
     style="fill:#ffffff;fill-opacity:1;fill-rule:nonzero;stroke:none;stroke-width:0.83906275" />
  <path
     inkscape:connector-curvature="0"
     id="path4845"
     d="m 194.12832,45.26024 -3.37919,-2.50408 c 0.46542,-0.46542 0.58013,-1.10783 0.58013,-2.33037 V 19.80648 l -1.80267,-1.39952 c -0.22616,-0.17372 -0.58342,-0.23272 -0.87511,-0.23272 l -0.58014,0.64242 c 0.40643,0 0.63913,0.0459 0.81284,0.17371 l 1.57324,1.16354 V 40.3078 c 0,1.45853 -0.2917,2.04194 -0.93083,2.56635 l 4.01832,2.9695 z m 0,0"
     style="fill:#ffffff;fill-opacity:1;fill-rule:nonzero;stroke:none;stroke-width:0.83906275" />
  <path
     inkscape:connector-curvature="0"
     id="path4847"
     d="m 182.42078,45.26024 -4.66073,-3.2612 c 0.3507,-0.35071 0.46542,-0.74074 0.46542,-1.22254 0,-0.30154 -0.10489,-0.59325 -0.17372,-0.81612 L 167.91745,7.51553 c -1.05211,-3.36281 -3.7299,-4.95244 -7.16481,-4.95244 -2.04194,0 -3.14649,0.75713 -3.84461,1.34053 l -0.059,0.17372 c 0.98984,-0.46542 1.97967,-0.81285 3.43492,-0.81285 3.50374,0 5.88982,1.68796 6.87638,4.83445 l 10.01632,32.03515 c 0.0885,0.28515 0.11798,0.53425 0.11798,0.75712 0,0.54736 -0.17371,0.93411 -0.6424,1.28154 l 5.24414,3.6709 z m 0,0"
     style="fill:#ffffff;fill-opacity:1;fill-rule:nonzero;stroke:none;stroke-width:0.83906275" />
  <path
     inkscape:connector-curvature="0"
     id="path4849"
     d="m 161.21805,22.48428 c -0.79645,-0.34416 -1.69123,-0.63914 -2.50735,-0.63914 -1.10455,0 -1.80267,0.40643 -2.32708,0.98984 v 0.2327 c 0.52441,-0.40641 1.22253,-0.5834 2.09437,-0.5834 0.68829,0 1.80595,0.3507 2.50408,0.75711 z m 0,0"
     style="fill:#ffffff;fill-opacity:1;fill-rule:nonzero;stroke:none;stroke-width:0.83906275" />
  <path
     inkscape:connector-curvature="0"
     id="path4851"
     d="m 172.46018,31.80574 c -0.2917,-0.17699 -1.10782,-0.40971 -2.38935,-0.40971 h -10.07532 l -0.23599,0.75713 h 9.9016 c 1.28154,0 2.15666,0.23271 2.44836,0.4097 z m 0,0"
     style="fill:#ffffff;fill-opacity:1;fill-rule:nonzero;stroke:none;stroke-width:0.83906275" />
  <path
     inkscape:connector-curvature="0"
     id="path4853"
     d="m 159.4121,45.02753 c -0.87511,-0.69812 -2.56307,-1.74695 -4.54273,-1.74695 -2.50735,0 -3.84461,1.04883 -4.42803,1.86167 l -0.11799,0.3507 c 0.75712,-0.75712 1.80595,-1.45525 4.0216,-1.45525 1.80595,0 3.37592,0.81284 4.54274,1.62896 z m 0,0"
     style="fill:#ffffff;fill-opacity:1;fill-rule:nonzero;stroke:none;stroke-width:0.83906275" />
  <path
     inkscape:connector-curvature="0"
     id="path4855"
     d="m 569.54988,45.22746 c -1.09471,-0.83578 -3.16942,-2.2812 -4.54271,-3.2022 0.23268,-0.4097 0.2917,-0.75712 0.2917,-1.39954 V 20.64554 l -5.29989,-3.37591 -0.75708,0.58013 5.18184,3.3202 v 19.39677 c 0,0.96362 -0.059,1.34054 -0.4064,1.75023 1.16353,0.75057 3.66435,2.51391 4.95244,3.55291 z m 0,0"
     style="fill:#ffffff;fill-opacity:1;fill-rule:nonzero;stroke:none;stroke-width:0.83906275" />
  <path
     inkscape:connector-curvature="0"
     id="path4857"
     d="m 555.62997,45.22746 -3.43821,-2.56307 c 0.46543,-0.40642 0.63918,-1.15371 0.63918,-1.92067 V 20.18013 l -1.92072,-1.68796 c -0.21632,-0.1901 -0.5244,-0.29171 -0.8718,-0.29171 l -0.58343,0.69813 c 0.40643,0 0.64897,0.095 0.81283,0.23271 l 1.69127,1.39954 v 20.09488 c 0,1.10784 -0.35071,1.63225 -0.87186,2.21238 l 3.95933,2.97277 z m 0,0"
     style="fill:#ffffff;fill-opacity:1;fill-rule:nonzero;stroke:none;stroke-width:0.83906275" />
  <path
     inkscape:connector-curvature="0"
     id="path4859"
     d="m 530.40565,24.37545 c -0.93083,-0.90134 -1.96982,-2.5893 -1.97966,-4.36903 l -0.69811,0.46541 c 0.4064,2.03866 1.606,3.35625 2.56305,3.95933 z m 0,0"
     style="fill:#ffffff;fill-opacity:1;fill-rule:nonzero;stroke:none;stroke-width:0.83906275" />
  <path
     inkscape:connector-curvature="0"
     id="path4861"
     d="M 543.63074,45.22746 539.4354,42.43168 V 20.70455 l -7.22381,-3.61191 -0.75713,0.58341 7.10583,3.49391 v 21.61243 l 4.48702,3.08748 z m 0,0"
     style="fill:#ffffff;fill-opacity:1;fill-rule:nonzero;stroke:none;stroke-width:0.83906275" />
  <path
     inkscape:connector-curvature="0"
     id="path4863"
     d="m 532.854,45.51917 c -1.63222,-0.81612 -5.47682,-3.72662 -5.47682,-7.86294 0,-2.50735 0.64241,-4.07732 1.2225,-4.95243 h -0.17369 c -0.52441,0.52441 -1.92067,2.27137 -1.92067,4.95243 0,3.84461 3.2022,7.16481 5.59155,8.32835 z m 0,0"
     style="fill:#ffffff;fill-opacity:1;fill-rule:nonzero;stroke:none;stroke-width:0.83906275" />
  <path
     inkscape:connector-curvature="0"
     id="path4865"
     d="m 520.68108,45.28646 -4.48707,-3.14649 c 0.35073,-0.34742 0.35073,-0.94394 0.35073,-1.62895 V 21.17324 l -5.12614,-3.55618 -0.64244,0.6424 4.89344,3.43819 V 40.2783 c 0,1.28154 -0.11795,1.68796 -0.63912,2.09439 l 5.06716,3.5529 z m 0,0"
     style="fill:#ffffff;fill-opacity:1;fill-rule:nonzero;stroke:none;stroke-width:0.83906275" />
  <path
     inkscape:connector-curvature="0"
     id="path4867"
     d="m 506.81686,45.22746 -3.43821,-2.56307 c 0.46871,-0.40642 0.69815,-1.04883 0.69815,-1.92067 V 20.99625 l -5.29989,-3.5529 -0.6981,0.5834 5.12614,3.49391 v 19.28206 c 0,0.96033 -0.2917,1.51424 -0.98983,2.03538 l 4.01833,3.03177 z m 0,0"
     style="fill:#ffffff;fill-opacity:1;fill-rule:nonzero;stroke:none;stroke-width:0.83906275" />
  <path
     inkscape:connector-curvature="0"
     id="path4869"
     d="m 494.35218,45.22746 -3.37921,-2.50408 c 0.46543,-0.46541 0.58015,-1.10782 0.58015,-2.33036 V 19.77371 l -1.80594,-1.39954 c -0.22616,-0.17371 -0.58015,-0.2327 -0.87185,-0.2327 l -0.58343,0.6424 c 0.40645,0 0.6424,0.0459 0.81613,0.17372 l 1.57324,1.16354 V 40.2783 c 0,1.45526 -0.29168,2.03866 -0.93409,2.5598 l 4.02159,2.97277 z m 0,0"
     style="fill:#ffffff;fill-opacity:1;fill-rule:nonzero;stroke:none;stroke-width:0.83906275" />
  <path
     inkscape:connector-curvature="0"
     id="path4871"
     d="m 482.93308,19.1903 c -1.10456,0.3507 -1.86497,0.46869 -3.72666,0.46869 -2.15662,0 -4.07728,-1.45853 -5.06711,-2.44836 l -0.87514,0.52441 c 0.93411,0.93084 3.0285,2.6778 5.59157,2.6778 1.45852,0 3.20548,-0.52114 3.95933,-0.93083 z m 0,0"
     style="fill:#ffffff;fill-opacity:1;fill-rule:nonzero;stroke:none;stroke-width:0.83906275" />
  <path
     inkscape:connector-curvature="0"
     id="path4873"
     d="M 475.01113,31.48126 468.197,27.92835 c 0.29173,-0.52442 0.29173,-1.03572 0.29173,-1.86494 v -5.88328 l -0.87511,0.23271 v 5.47684 c 0,1.28155 -0.11472,1.86496 -0.58015,2.38937 l 7.51224,3.84134 z m 0,0"
     style="fill:#ffffff;fill-opacity:1;fill-rule:nonzero;stroke:none;stroke-width:0.83906275" />
  <path
     inkscape:connector-curvature="0"
     id="path4875"
     d="M 480.60268,42.72338 V 32.9955 l -4.42473,-2.21237 -0.52441,0.75712 4.07406,2.03866 v 9.5509 z m 0,0"
     style="fill:#ffffff;fill-opacity:1;fill-rule:nonzero;stroke:none;stroke-width:0.83906275" />
  <path
     inkscape:connector-curvature="0"
     id="path4877"
     d="m 460.39306,25.19156 c -1.44867,-1.65846 -4.42473,-5.33919 -5.88327,-7.39751 l -0.75708,0.52441 c 1.29133,1.82889 4.24119,5.60467 5.82425,7.45324 z m 0,0"
     style="fill:#ffffff;fill-opacity:1;fill-rule:nonzero;stroke:none;stroke-width:0.83906275" />
  <path
     inkscape:connector-curvature="0"
     id="path4879"
     d="m 475.88622,45.28646 c -0.58338,-0.58341 -2.33035,-1.74695 -4.25101,-1.74695 -2.27462,0 -3.55621,0.81612 -4.36904,1.56996 v 0.23598 c 0.87186,-0.6424 1.68796,-1.04883 3.95933,-1.04883 1.80597,0 3.08751,0.93084 3.90364,1.57325 z m 0,0"
     style="fill:#ffffff;fill-opacity:1;fill-rule:nonzero;stroke:none;stroke-width:0.83906275" />
  <path
     inkscape:connector-curvature="0"
     id="path4881"
     d="m 442.62529,17.96776 c -0.29173,-0.17371 -0.81942,-0.23272 -1.16681,-0.23272 h -3.08425 v 0.75713 h 2.67779 c 0.52441,0 0.93086,0.059 1.22256,0.23271 z m 0,0"
     style="fill:#ffffff;fill-opacity:1;fill-rule:nonzero;stroke:none;stroke-width:0.83906275" />
  <path
     inkscape:connector-curvature="0"
     id="path4883"
     d="M 433.59551,16.74522 V 12.6089 c 0,-0.69813 -0.1737,-1.51425 -0.46543,-1.92394 l -0.81611,0.23598 c 0.35071,0.40643 0.40971,1.04555 0.40971,1.92067 v 3.90361 z m 0,0"
     style="fill:#ffffff;fill-opacity:1;fill-rule:nonzero;stroke:none;stroke-width:0.83906275" />
  <path
     inkscape:connector-curvature="0"
     id="path4885"
     d="m 456.72218,45.22746 -8.91177,-4.94916 c 0.46543,-0.40969 0.52443,-1.03899 0.52443,-1.80595 v -17.4761 l -0.87514,0.29171 v 17.0664 c 0,1.10783 -0.11472,1.63224 -0.6981,2.15666 2.94325,1.55684 7.05665,3.92982 9.43618,5.35885 z m 0,0"
     style="fill:#ffffff;fill-opacity:1;fill-rule:nonzero;stroke:none;stroke-width:0.83906275" />
  <path
     inkscape:connector-curvature="0"
     id="path4887"
     d="m 440.00319,45.16847 c -1.68466,-1.05866 -4.89014,-3.00883 -6.64038,-4.01833 0.17372,-0.46541 0.2327,-0.99966 0.2327,-1.68795 V 17.73504 h -3.7266 l -0.40643,0.75713 h 3.2612 V 39.6359 c 0,1.16355 -0.059,1.51424 -0.40971,1.86494 2.07145,1.1865 5.35559,3.1891 7.10912,4.31003 z m 0,0"
     style="fill:#ffffff;fill-opacity:1;fill-rule:nonzero;stroke:none;stroke-width:0.83906275" />
  <path
     inkscape:connector-curvature="0"
     id="path4889"
     d="m 411.34397,24.37545 c -0.93083,-0.90134 -1.96982,-2.5893 -1.97966,-4.36903 l -0.69813,0.46541 c 0.4064,2.03866 1.60602,3.35625 2.56307,3.95933 z m 0,0"
     style="fill:#ffffff;fill-opacity:1;fill-rule:nonzero;stroke:none;stroke-width:0.83906275" />
  <path
     inkscape:connector-curvature="0"
     id="path4891"
     d="m 424.56906,45.22746 -4.19534,-2.79578 V 20.70455 l -7.22381,-3.61191 -0.75713,0.58341 7.10912,3.49391 v 21.61243 l 4.48373,3.08748 z m 0,0"
     style="fill:#ffffff;fill-opacity:1;fill-rule:nonzero;stroke:none;stroke-width:0.83906275" />
  <path
     inkscape:connector-curvature="0"
     id="path4893"
     d="m 403.65801,17.96776 c -0.2917,-0.17371 -0.82267,-0.23272 -1.16681,-0.23272 h -3.08748 v 0.75713 h 2.68105 c 0.52443,0 0.93083,0.059 1.22254,0.23271 z m 0,0"
     style="fill:#ffffff;fill-opacity:1;fill-rule:nonzero;stroke:none;stroke-width:0.83906275" />
  <path
     inkscape:connector-curvature="0"
     id="path4895"
     d="M 394.62828,16.74522 V 12.6089 c 0,-0.69813 -0.17372,-1.51425 -0.46542,-1.92394 l -0.81611,0.23598 c 0.35068,0.40643 0.4064,1.04555 0.4064,1.92067 v 3.90361 z m 0,0"
     style="fill:#ffffff;fill-opacity:1;fill-rule:nonzero;stroke:none;stroke-width:0.83906275" />
  <path
     inkscape:connector-curvature="0"
     id="path4897"
     d="m 382.74373,5.85051 c -1.86169,-1.74695 -4.48374,-3.5529 -8.26937,-3.5529 -2.74005,0 -4.13631,0.69812 -4.77872,1.04883 l -0.0557,0.2327 c 1.10456,-0.34742 2.56307,-0.58341 4.42476,-0.58341 4.13631,0 6.75839,2.09766 8.15465,3.6709 z m 0,0"
     style="fill:#ffffff;fill-opacity:1;fill-rule:nonzero;stroke:none;stroke-width:0.83906275" />
  <path
     inkscape:connector-curvature="0"
     id="path4899"
     d="m 413.79232,45.51917 c -1.63222,-0.81612 -5.47682,-3.72662 -5.47682,-7.86294 0,-2.50735 0.64241,-4.07732 1.22579,-4.95243 h -0.17698 c -0.52441,0.52441 -1.92067,2.27137 -1.92067,4.95243 0,3.90361 3.2022,7.16481 5.59155,8.32835 z m 0,0"
     style="fill:#ffffff;fill-opacity:1;fill-rule:nonzero;stroke:none;stroke-width:0.83906275" />
  <path
     inkscape:connector-curvature="0"
     id="path4901"
     d="m 401.03596,45.16847 c -1.68799,-1.05866 -4.89347,-3.00883 -6.6404,-4.01833 0.1737,-0.46541 0.23272,-0.99966 0.23272,-1.68795 V 17.73504 h -3.72665 l -0.40968,0.75713 h 3.2612 V 39.6359 c 0,1.16355 -0.0557,1.51424 -0.4064,1.86494 2.06814,1.1865 5.35225,3.1891 7.10578,4.31003 z m 0,0"
     style="fill:#ffffff;fill-opacity:1;fill-rule:nonzero;stroke:none;stroke-width:0.83906275" />
  <path
     inkscape:connector-curvature="0"
     id="path4903"
     d="m 386.58834,31.83196 c 0,-4.13632 -1.99935,-6.98782 -6.057,-8.91177 l -10.31127,-4.89344 c -4.3756,-2.07799 -5.64729,-4.48702 -6.23072,-7.45651 l -0.11798,0.11472 c 0.059,3.32347 0.78663,5.65383 6.057,8.15792 l 10.19657,4.83444 c 4.23793,2.00916 5.94227,5.64728 5.99797,10.01631 l 0.17698,-0.11472 c 0.11472,-0.2917 0.28845,-1.45852 0.28845,-1.74695"
     style="fill:#ffffff;fill-opacity:1;fill-rule:nonzero;stroke:none;stroke-width:0.83906275" />
  <path
     inkscape:connector-curvature="0"
     id="path4905"
     d="m 367.07685,31.88768 v -0.17372 c -0.64241,0.23271 -1.45851,0.4097 -2.44509,0.4097 -0.49819,0 -1.10784,-0.2917 -1.51752,-0.52441 l -0.40643,0.75713 c 0.35071,0.2327 0.94068,0.40641 1.39954,0.40641 1.45524,0 2.32709,-0.46542 2.9695,-0.87511"
     style="fill:#ffffff;fill-opacity:1;fill-rule:nonzero;stroke:none;stroke-width:0.83906275" />
  <path
     inkscape:connector-curvature="0"
     id="path4907"
     d="m 377.38486,45.22746 c -1.92066,-1.86495 -4.94916,-3.84461 -8.56104,-3.84461 -5.88328,0 -7.98092,2.33037 -8.97078,3.72662 l 0.118,0.11799 c 0.93083,-1.16354 3.4939,-3.02849 8.56107,-3.02849 3.61191,0 6.64041,2.27137 8.0399,3.6709 z m 0,0"
     style="fill:#ffffff;fill-opacity:1;fill-rule:nonzero;stroke:none;stroke-width:0.83906275" />
</svg>
